# xmcd CD database file
#
# Track frame offsets:
#	150
#	24893
#	47407
#	74351
#	90489
#	112938
#	131517
#	154125
#
# Disc length: 2278 seconds
#
# Revision: 0
# Processed by: cddbd v1.4PL0 Copyright (c) Steve Scherf et al.
# Submitted via: CDex 1.50beta9
#
DISCID=5708e408
DTITLE=Julie Woods - Sketches
DYEAR=2000
DGENRE=New Age
TTITLE0=one way ticket
TTITLE1=one out of three
TTITLE2=in your eyes
TTITLE3=the end
TTITLE4=we all fall
TTITLE5=the healing
TTITLE6=breathe (ju-ju's lullaby)
TTITLE7=life goes on
EXTD=YEAR: 2000
EXTT0=
EXTT1=
EXTT2=
EXTT3=
EXTT4=
EXTT5=
EXTT6=
EXTT7=
PLAYORDER=
